<svg xmlns="http://www.w3.org/2000/svg" width="1400" height="420" viewBox="0 0 1400 420" role="img">
<defs>
<linearGradient id="bg" x1="0" y1="0" x2="1" y2="1"><stop offset="0" stop-color="#0A0F1E"/><stop offset="1" stop-color="#050810"/></linearGradient>
<linearGradient id="acc" x1="0" y1="0" x2="1" y2="0"><stop offset="0" stop-color="#22D3EE"/><stop offset="1" stop-color="#A78BFA"/></linearGradient>
<linearGradient id="accv" x1="0" y1="0" x2="0" y2="1"><stop offset="0" stop-color="#22D3EE"/><stop offset="1" stop-color="#A78BFA"/></linearGradient>
<radialGradient id="gc"><stop offset="0" stop-color="#22D3EE" stop-opacity=".22"/><stop offset="1" stop-color="#22D3EE" stop-opacity="0"/></radialGradient>
<radialGradient id="gv"><stop offset="0" stop-color="#A78BFA" stop-opacity=".22"/><stop offset="1" stop-color="#A78BFA" stop-opacity="0"/></radialGradient>
<pattern id="grid" width="32" height="32" patternUnits="userSpaceOnUse"><path d="M32 0H0V32" fill="none" stroke="#1C2742" stroke-opacity=".55"/></pattern>
<pattern id="dots" width="16" height="16" patternUnits="userSpaceOnUse"><circle cx="1" cy="1" r="1" fill="#26345A"/></pattern>
<clipPath id="clip"><rect width="1400" height="420" rx="22"/></clipPath>
<filter id="glow" x="-50%" y="-50%" width="200%" height="200%"><feGaussianBlur stdDeviation="3" result="b"/><feMerge><feMergeNode in="b"/><feMergeNode in="SourceGraphic"/></feMerge></filter>
<filter id="glow2" x="-50%" y="-50%" width="200%" height="200%"><feGaussianBlur stdDeviation="7" result="b"/><feMerge><feMergeNode in="b"/><feMergeNode in="SourceGraphic"/></feMerge></filter>

</defs>
<style>
.s{font-family:'Segoe UI',Ubuntu,'Helvetica Neue',Helvetica,Arial,sans-serif} .m{font-family:'Cascadia Code','JetBrains Mono','Fira Code',Consolas,'Courier New',monospace}
.blink{animation:bl 1.1s steps(2,start) infinite} @keyframes bl{50%{opacity:0}}
.pulse{animation:pu 2.2s ease-in-out infinite} @keyframes pu{0%,100%{opacity:.45}50%{opacity:1}}
.fade{opacity:0;animation:fd .6s ease-out forwards} @keyframes fd{to{opacity:1}}
.rise{opacity:0;animation:rs .6s ease-out both} @keyframes rs{from{opacity:0}to{opacity:1}}
.dash{animation:da 1s linear infinite} @keyframes da{to{stroke-dashoffset:-16}}
.scan{animation:sc 8s linear infinite} @keyframes sc{from{transform:translateY(-40px)}to{transform:translateY(700px)}}
.spin{animation:sp 6s linear infinite;transform-box:fill-box;transform-origin:center} @keyframes sp{to{transform:rotate(360deg)}}
.spinr{animation:spr 14s linear infinite;transform-box:fill-box;transform-origin:center} @keyframes spr{to{transform:rotate(-360deg)}}
.draw{stroke-dasharray:2000;stroke-dashoffset:2000;animation:dr 2.2s ease-out forwards} @keyframes dr{to{stroke-dashoffset:0}}
.flt{animation:fl 9s ease-in-out infinite} @keyframes fl{0%,100%{transform:translate(0,0)}50%{transform:translate(-26px,18px)}}
.flt2{animation:fl2 12s ease-in-out infinite} @keyframes fl2{0%,100%{transform:translate(0,0)}50%{transform:translate(22px,-16px)}}
</style>
<g clip-path="url(#clip)">
<rect width="1400" height="420" fill="url(#bg)"/><rect width="1400" height="420" fill="url(#grid)"/>
<g class="flt"><circle cx="1148.0" cy="84.0" r="231.00000000000003" fill="url(#gc)"/></g><g class="flt2"><circle cx="350.0" cy="399.0" r="210.0" fill="url(#gv)"/></g>
<g class="scan" opacity=".25"><rect width="1400" height="3" fill="url(#acc)"/></g>
</g>
<rect x=".5" y=".5" width="1399" height="419" rx="22" fill="none" stroke="#26345A"/>
<g stroke="#22D3EE" stroke-width="2" fill="none" opacity=".9">
<path d="M14 36 V14 H36"/><path d="M1364 14 H1386 V36"/>
<path d="M14 384 V406 H36"/><path d="M1364 406 H1386 V384"/></g>
<g class="rise" style="animation-delay:0.15s"><text x="50" y="82" class="m" font-size="11.5" fill="#22D3EE" letter-spacing="2">LANGUAGES</text><g><rect x="300" y="62" width="64" height="24" rx="12.0" fill="#0B1122" stroke="#26345A"/><text x="332.0" y="77" text-anchor="middle" class="m" font-size="12" fill="#E6EDF3">Python</text></g><g><rect x="372" y="62" width="49" height="24" rx="12.0" fill="#0B1122" stroke="#26345A"/><text x="396.5" y="77" text-anchor="middle" class="m" font-size="12" fill="#E6EDF3">Rust</text></g><g><rect x="429" y="62" width="94" height="24" rx="12.0" fill="#0B1122" stroke="#26345A"/><text x="476.0" y="77" text-anchor="middle" class="m" font-size="12" fill="#E6EDF3">TypeScript</text></g><g><rect x="531" y="62" width="94" height="24" rx="12.0" fill="#0B1122" stroke="#26345A"/><text x="578.0" y="77" text-anchor="middle" class="m" font-size="12" fill="#E6EDF3">JavaScript</text></g><g><rect x="633" y="62" width="42" height="24" rx="12.0" fill="#0B1122" stroke="#26345A"/><text x="654.0" y="77" text-anchor="middle" class="m" font-size="12" fill="#E6EDF3">PHP</text></g><g><rect x="683" y="62" width="49" height="24" rx="12.0" fill="#0B1122" stroke="#26345A"/><text x="707.5" y="77" text-anchor="middle" class="m" font-size="12" fill="#E6EDF3">Dart</text></g><g><rect x="740" y="62" width="34" height="24" rx="12.0" fill="#0B1122" stroke="#26345A"/><text x="757.0" y="77" text-anchor="middle" class="m" font-size="12" fill="#E6EDF3">C#</text></g><g><rect x="782" y="62" width="42" height="24" rx="12.0" fill="#0B1122" stroke="#26345A"/><text x="803.0" y="77" text-anchor="middle" class="m" font-size="12" fill="#E6EDF3">SQL</text></g></g><line x1="50" y1="106" x2="1350" y2="106" stroke="#1C2742"/><g class="rise" style="animation-delay:0.30s"><text x="50" y="152" class="m" font-size="11.5" fill="#A78BFA" letter-spacing="2">AI · VISION · INFERENCE</text><g><rect x="300" y="132" width="72" height="24" rx="12.0" fill="#0B1122" stroke="#26345A"/><text x="336.0" y="147" text-anchor="middle" class="m" font-size="12" fill="#E6EDF3">PyTorch</text></g><g><rect x="380" y="132" width="64" height="24" rx="12.0" fill="#0B1122" stroke="#26345A"/><text x="412.0" y="147" text-anchor="middle" class="m" font-size="12" fill="#E6EDF3">OpenCV</text></g><g><rect x="452" y="132" width="64" height="24" rx="12.0" fill="#0B1122" stroke="#26345A"/><text x="484.0" y="147" text-anchor="middle" class="m" font-size="12" fill="#E6EDF3">YOLOv8</text></g><g><rect x="524" y="132" width="109" height="24" rx="12.0" fill="#0B1122" stroke="#26345A"/><text x="578.5" y="147" text-anchor="middle" class="m" font-size="12" fill="#E6EDF3">ONNX Runtime</text></g><g><rect x="641" y="132" width="79" height="24" rx="12.0" fill="#0B1122" stroke="#26345A"/><text x="680.5" y="147" text-anchor="middle" class="m" font-size="12" fill="#E6EDF3">DirectML</text></g><g><rect x="728" y="132" width="64" height="24" rx="12.0" fill="#0B1122" stroke="#26345A"/><text x="760.0" y="147" text-anchor="middle" class="m" font-size="12" fill="#E6EDF3">Ollama</text></g><g><rect x="800" y="132" width="86" height="24" rx="12.0" fill="#0B1122" stroke="#26345A"/><text x="843.0" y="147" text-anchor="middle" class="m" font-size="12" fill="#E6EDF3">LM Studio</text></g><g><rect x="894" y="132" width="79" height="24" rx="12.0" fill="#0B1122" stroke="#26345A"/><text x="933.5" y="147" text-anchor="middle" class="m" font-size="12" fill="#E6EDF3">ChromaDB</text></g><g><rect x="981" y="132" width="64" height="24" rx="12.0" fill="#0B1122" stroke="#26345A"/><text x="1013.0" y="147" text-anchor="middle" class="m" font-size="12" fill="#E6EDF3">bge-m3</text></g><g><rect x="1053" y="132" width="42" height="24" rx="12.0" fill="#0B1122" stroke="#26345A"/><text x="1074.0" y="147" text-anchor="middle" class="m" font-size="12" fill="#E6EDF3">OCR</text></g><g><rect x="1103" y="132" width="94" height="24" rx="12.0" fill="#0B1122" stroke="#26345A"/><text x="1150.0" y="147" text-anchor="middle" class="m" font-size="12" fill="#E6EDF3">Playwright</text></g><g><rect x="1205" y="132" width="101" height="24" rx="12.0" fill="#0B1122" stroke="#26345A"/><text x="1255.5" y="147" text-anchor="middle" class="m" font-size="12" fill="#E6EDF3">WGPU / WGSL</text></g></g><line x1="50" y1="176" x2="1350" y2="176" stroke="#1C2742"/><g class="rise" style="animation-delay:0.45s"><text x="50" y="222" class="m" font-size="11.5" fill="#34D399" letter-spacing="2">FRONTEND · MOBILE · DESKTOP</text><g><rect x="300" y="202" width="57" height="24" rx="12.0" fill="#0B1122" stroke="#26345A"/><text x="328.5" y="217" text-anchor="middle" class="m" font-size="12" fill="#E6EDF3">React</text></g><g><rect x="365" y="202" width="72" height="24" rx="12.0" fill="#0B1122" stroke="#26345A"/><text x="401.0" y="217" text-anchor="middle" class="m" font-size="12" fill="#E6EDF3">Angular</text></g><g><rect x="445" y="202" width="72" height="24" rx="12.0" fill="#0B1122" stroke="#26345A"/><text x="481.0" y="217" text-anchor="middle" class="m" font-size="12" fill="#E6EDF3">Next.js</text></g><g><rect x="525" y="202" width="109" height="24" rx="12.0" fill="#0B1122" stroke="#26345A"/><text x="579.5" y="217" text-anchor="middle" class="m" font-size="12" fill="#E6EDF3">React Native</text></g><g><rect x="642" y="202" width="72" height="24" rx="12.0" fill="#0B1122" stroke="#26345A"/><text x="678.0" y="217" text-anchor="middle" class="m" font-size="12" fill="#E6EDF3">Flutter</text></g><g><rect x="722" y="202" width="79" height="24" rx="12.0" fill="#0B1122" stroke="#26345A"/><text x="761.5" y="217" text-anchor="middle" class="m" font-size="12" fill="#E6EDF3">Electron</text></g><g><rect x="809" y="202" width="109" height="24" rx="12.0" fill="#0B1122" stroke="#26345A"/><text x="863.5" y="217" text-anchor="middle" class="m" font-size="12" fill="#E6EDF3">PySide6 / Qt</text></g><g><rect x="926" y="202" width="79" height="24" rx="12.0" fill="#0B1122" stroke="#26345A"/><text x="965.5" y="217" text-anchor="middle" class="m" font-size="12" fill="#E6EDF3">Tailwind</text></g></g><line x1="50" y1="246" x2="1350" y2="246" stroke="#1C2742"/><g class="rise" style="animation-delay:0.60s"><text x="50" y="292" class="m" font-size="11.5" fill="#FBBF24" letter-spacing="2">BACKEND · DATA</text><g><rect x="300" y="272" width="101" height="24" rx="12.0" fill="#0B1122" stroke="#26345A"/><text x="350.5" y="287" text-anchor="middle" class="m" font-size="12" fill="#E6EDF3">Django ASGI</text></g><g><rect x="409" y="272" width="72" height="24" rx="12.0" fill="#0B1122" stroke="#26345A"/><text x="445.0" y="287" text-anchor="middle" class="m" font-size="12" fill="#E6EDF3">Laravel</text></g><g><rect x="489" y="272" width="72" height="24" rx="12.0" fill="#0B1122" stroke="#26345A"/><text x="525.0" y="287" text-anchor="middle" class="m" font-size="12" fill="#E6EDF3">Node.js</text></g><g><rect x="569" y="272" width="72" height="24" rx="12.0" fill="#0B1122" stroke="#26345A"/><text x="605.0" y="287" text-anchor="middle" class="m" font-size="12" fill="#E6EDF3">Express</text></g><g><rect x="649" y="272" width="49" height="24" rx="12.0" fill="#0B1122" stroke="#26345A"/><text x="673.5" y="287" text-anchor="middle" class="m" font-size="12" fill="#E6EDF3">REST</text></g><g><rect x="706" y="272" width="42" height="24" rx="12.0" fill="#0B1122" stroke="#26345A"/><text x="727.0" y="287" text-anchor="middle" class="m" font-size="12" fill="#E6EDF3">SSE</text></g><g><rect x="756" y="272" width="57" height="24" rx="12.0" fill="#0B1122" stroke="#26345A"/><text x="784.5" y="287" text-anchor="middle" class="m" font-size="12" fill="#E6EDF3">MySQL</text></g><g><rect x="821" y="272" width="94" height="24" rx="12.0" fill="#0B1122" stroke="#26345A"/><text x="868.0" y="287" text-anchor="middle" class="m" font-size="12" fill="#E6EDF3">PostgreSQL</text></g><g><rect x="923" y="272" width="72" height="24" rx="12.0" fill="#0B1122" stroke="#26345A"/><text x="959.0" y="287" text-anchor="middle" class="m" font-size="12" fill="#E6EDF3">MongoDB</text></g><g><rect x="1003" y="272" width="57" height="24" rx="12.0" fill="#0B1122" stroke="#26345A"/><text x="1031.5" y="287" text-anchor="middle" class="m" font-size="12" fill="#E6EDF3">Redis</text></g><g><rect x="1068" y="272" width="64" height="24" rx="12.0" fill="#0B1122" stroke="#26345A"/><text x="1100.0" y="287" text-anchor="middle" class="m" font-size="12" fill="#E6EDF3">SQLite</text></g><g><rect x="1140" y="272" width="79" height="24" rx="12.0" fill="#0B1122" stroke="#26345A"/><text x="1179.5" y="287" text-anchor="middle" class="m" font-size="12" fill="#E6EDF3">Firebase</text></g></g><line x1="50" y1="316" x2="1350" y2="316" stroke="#1C2742"/><g class="rise" style="animation-delay:0.75s"><text x="50" y="362" class="m" font-size="11.5" fill="#F472B6" letter-spacing="2">INFRA · TOOLING</text><g><rect x="300" y="342" width="64" height="24" rx="12.0" fill="#0B1122" stroke="#26345A"/><text x="332.0" y="357" text-anchor="middle" class="m" font-size="12" fill="#E6EDF3">Docker</text></g><g><rect x="372" y="342" width="57" height="24" rx="12.0" fill="#0B1122" stroke="#26345A"/><text x="400.5" y="357" text-anchor="middle" class="m" font-size="12" fill="#E6EDF3">Linux</text></g><g><rect x="437" y="342" width="57" height="24" rx="12.0" fill="#0B1122" stroke="#26345A"/><text x="465.5" y="357" text-anchor="middle" class="m" font-size="12" fill="#E6EDF3">Nginx</text></g><g><rect x="502" y="342" width="42" height="24" rx="12.0" fill="#0B1122" stroke="#26345A"/><text x="523.0" y="357" text-anchor="middle" class="m" font-size="12" fill="#E6EDF3">Git</text></g><g><rect x="552" y="342" width="124" height="24" rx="12.0" fill="#0B1122" stroke="#26345A"/><text x="614.0" y="357" text-anchor="middle" class="m" font-size="12" fill="#E6EDF3">GitHub Actions</text></g><g><rect x="684" y="342" width="57" height="24" rx="12.0" fill="#0B1122" stroke="#26345A"/><text x="712.5" y="357" text-anchor="middle" class="m" font-size="12" fill="#E6EDF3">CI/CD</text></g><g><rect x="749" y="342" width="49" height="24" rx="12.0" fill="#0B1122" stroke="#26345A"/><text x="773.5" y="357" text-anchor="middle" class="m" font-size="12" fill="#E6EDF3">Bash</text></g><g><rect x="806" y="342" width="94" height="24" rx="12.0" fill="#0B1122" stroke="#26345A"/><text x="853.0" y="357" text-anchor="middle" class="m" font-size="12" fill="#E6EDF3">PowerShell</text></g><g><rect x="908" y="342" width="72" height="24" rx="12.0" fill="#0B1122" stroke="#26345A"/><text x="944.0" y="357" text-anchor="middle" class="m" font-size="12" fill="#E6EDF3">Postman</text></g><g><rect x="988" y="342" width="57" height="24" rx="12.0" fill="#0B1122" stroke="#26345A"/><text x="1016.5" y="357" text-anchor="middle" class="m" font-size="12" fill="#E6EDF3">Figma</text></g></g><line x1="50" y1="386" x2="1350" y2="386" stroke="#1C2742"/>
</svg>